<svg width="100%" height="100%" viewBox="0 0 20 20" fill="none" xmlns="http://www.w3.org/2000/svg">
<path d="M3 14.75V9.75C3 9.46667 3.096 9.22933 3.288 9.038C3.48 8.84667 3.71734 8.75067 4 8.75C4.28267 8.74933 4.52034 8.84533 4.713 9.038C4.90567 9.23067 5.00134 9.468 5 9.75V14.75C5 15.0333 4.904 15.271 4.712 15.463C4.52 15.655 4.28267 15.7507 4 15.75C3.71734 15.7493 3.48 15.6533 3.288 15.462C3.096 15.2707 3 15.0333 3 14.75ZM9 14.75V9.75C9 9.46667 9.096 9.22933 9.288 9.038C9.48 8.84667 9.71734 8.75067 10 8.75C10.2827 8.74933 10.5203 8.84533 10.713 9.038C10.9057 9.23067 11.0013 9.468 11 9.75V14.75C11 15.0333 10.904 15.271 10.712 15.463C10.52 15.655 10.2827 15.7507 10 15.75C9.71734 15.7493 9.48 15.6533 9.288 15.462C9.096 15.2707 9 15.0333 9 14.75ZM1 19.75C0.716671 19.75 0.479337 19.654 0.288004 19.462C0.0966706 19.27 0.000670455 19.0327 3.78788e-06 18.75C-0.000662879 18.4673 0.0953372 18.23 0.288004 18.038C0.480671 17.846 0.718004 17.75 1 17.75H19C19.2833 17.75 19.521 17.846 19.713 18.038C19.905 18.23 20.0007 18.4673 20 18.75C19.9993 19.0327 19.9033 19.2703 19.712 19.463C19.5207 19.6557 19.2833 19.7513 19 19.75H1ZM15 14.75V9.75C15 9.46667 15.096 9.22933 15.288 9.038C15.48 8.84667 15.7173 8.75067 16 8.75C16.2827 8.74933 16.5203 8.84533 16.713 9.038C16.9057 9.23067 17.0013 9.468 17 9.75V14.75C17 15.0333 16.904 15.271 16.712 15.463C16.52 15.655 16.2827 15.7507 16 15.75C15.7173 15.7493 15.48 15.6533 15.288 15.462C15.096 15.2707 15 15.0333 15 14.75ZM19 6.75H0.900004C0.650004 6.75 0.437337 6.66267 0.262004 6.488C0.0866705 6.31333 -0.000662879 6.10067 3.78788e-06 5.85V5.3C3.78788e-06 5.11667 0.0460038 4.95833 0.138004 4.825C0.230004 4.69167 0.35067 4.58333 0.500004 4.5L9.1 0.2C9.38334 0.0666667 9.68334 0 10 0C10.3167 0 10.6167 0.0666667 10.9 0.2L19.45 4.475C19.6333 4.55833 19.771 4.68333 19.863 4.85C19.955 5.01667 20.0007 5.19167 20 5.375V5.75C20 6.03333 19.9043 6.271 19.713 6.463C19.5217 6.655 19.284 6.75067 19 6.75Z" fill="currentColor"/>
</svg>
